<mxfile host="65bd71144e" modified="2020-11-19T12:27:52.372Z" agent="5.0 (Windows NT 10.0; Win64; x64) AppleWebKit/537.36 (KHTML, like Gecko) Code/1.51.1 Chrome/83.0.4103.122 Electron/9.3.3 Safari/537.36" etag="bOetbbENtee9DikHhxwZ" version="13.6.5">
    <diagram id="R5mwL2QlbzGVXMHXNJKV" name="Page-1">
        <mxGraphModel dx="1030" dy="790" grid="1" gridSize="10" guides="1" tooltips="1" connect="1" arrows="1" fold="1" page="1" pageScale="1" pageWidth="1920" pageHeight="1200" math="0" shadow="0">
            <root>
                <mxCell id="0"/>
                <mxCell id="1" parent="0"/>
                <mxCell id="iDOt17yhNt0-OwP-10Hs-8" style="edgeStyle=orthogonalEdgeStyle;rounded=0;orthogonalLoop=1;jettySize=auto;html=1;entryX=0;entryY=0.5;entryDx=0;entryDy=0;curved=1;" parent="1" source="iDOt17yhNt0-OwP-10Hs-1" target="iDOt17yhNt0-OwP-10Hs-7" edge="1">
                    <mxGeometry relative="1" as="geometry"/>
                </mxCell>
                <mxCell id="iDOt17yhNt0-OwP-10Hs-9" style="edgeStyle=orthogonalEdgeStyle;rounded=0;orthogonalLoop=1;jettySize=auto;html=1;entryX=0;entryY=0.5;entryDx=0;entryDy=0;curved=1;" parent="1" source="iDOt17yhNt0-OwP-10Hs-1" target="iDOt17yhNt0-OwP-10Hs-6" edge="1">
                    <mxGeometry relative="1" as="geometry"/>
                </mxCell>
                <mxCell id="iDOt17yhNt0-OwP-10Hs-1" value="Data scientists" style="rounded=0;whiteSpace=wrap;html=1;" parent="1" vertex="1">
                    <mxGeometry x="50" y="290" width="120" height="60" as="geometry"/>
                </mxCell>
                <mxCell id="iDOt17yhNt0-OwP-10Hs-33" style="edgeStyle=orthogonalEdgeStyle;curved=1;rounded=0;orthogonalLoop=1;jettySize=auto;html=1;" parent="1" source="iDOt17yhNt0-OwP-10Hs-2" target="iDOt17yhNt0-OwP-10Hs-26" edge="1">
                    <mxGeometry relative="1" as="geometry"/>
                </mxCell>
                <mxCell id="iDOt17yhNt0-OwP-10Hs-2" value="RStudio&lt;br&gt;Server Pro" style="rounded=0;whiteSpace=wrap;html=1;fillColor=#dae8fc;strokeColor=#6c8ebf;" parent="1" vertex="1">
                    <mxGeometry x="410" y="130" width="120" height="60" as="geometry"/>
                </mxCell>
                <mxCell id="iDOt17yhNt0-OwP-10Hs-17" style="edgeStyle=orthogonalEdgeStyle;rounded=0;orthogonalLoop=1;jettySize=auto;html=1;curved=1;" parent="1" source="iDOt17yhNt0-OwP-10Hs-3" target="iDOt17yhNt0-OwP-10Hs-14" edge="1">
                    <mxGeometry relative="1" as="geometry"/>
                </mxCell>
                <mxCell id="iDOt17yhNt0-OwP-10Hs-18" style="edgeStyle=orthogonalEdgeStyle;rounded=0;orthogonalLoop=1;jettySize=auto;html=1;entryX=0;entryY=0.5;entryDx=0;entryDy=0;curved=1;" parent="1" source="iDOt17yhNt0-OwP-10Hs-3" target="iDOt17yhNt0-OwP-10Hs-15" edge="1">
                    <mxGeometry relative="1" as="geometry"/>
                </mxCell>
                <mxCell id="iDOt17yhNt0-OwP-10Hs-19" style="edgeStyle=orthogonalEdgeStyle;rounded=0;orthogonalLoop=1;jettySize=auto;html=1;entryX=0;entryY=0.5;entryDx=0;entryDy=0;curved=1;" parent="1" source="iDOt17yhNt0-OwP-10Hs-3" target="iDOt17yhNt0-OwP-10Hs-16" edge="1">
                    <mxGeometry relative="1" as="geometry"/>
                </mxCell>
                <mxCell id="iDOt17yhNt0-OwP-10Hs-3" value="RStudio&lt;br&gt;Connect" style="rounded=0;whiteSpace=wrap;html=1;fillColor=#dae8fc;strokeColor=#6c8ebf;" parent="1" vertex="1">
                    <mxGeometry x="410" y="420" width="120" height="60" as="geometry"/>
                </mxCell>
                <mxCell id="iDOt17yhNt0-OwP-10Hs-24" style="edgeStyle=orthogonalEdgeStyle;curved=1;rounded=0;orthogonalLoop=1;jettySize=auto;html=1;entryX=1;entryY=0.5;entryDx=0;entryDy=0;" parent="1" source="iDOt17yhNt0-OwP-10Hs-4" target="iDOt17yhNt0-OwP-10Hs-2" edge="1">
                    <mxGeometry relative="1" as="geometry"/>
                </mxCell>
                <mxCell id="iDOt17yhNt0-OwP-10Hs-25" style="edgeStyle=orthogonalEdgeStyle;curved=1;rounded=0;orthogonalLoop=1;jettySize=auto;html=1;entryX=0.75;entryY=0;entryDx=0;entryDy=0;" parent="1" source="iDOt17yhNt0-OwP-10Hs-4" target="iDOt17yhNt0-OwP-10Hs-3" edge="1">
                    <mxGeometry relative="1" as="geometry"/>
                </mxCell>
                <mxCell id="iDOt17yhNt0-OwP-10Hs-4" value="RStudio&lt;br&gt;Package Manager" style="rounded=0;whiteSpace=wrap;html=1;fillColor=#dae8fc;strokeColor=#6c8ebf;" parent="1" vertex="1">
                    <mxGeometry x="700" y="270" width="120" height="60" as="geometry"/>
                </mxCell>
                <mxCell id="iDOt17yhNt0-OwP-10Hs-23" style="edgeStyle=orthogonalEdgeStyle;curved=1;rounded=0;orthogonalLoop=1;jettySize=auto;html=1;" parent="1" source="iDOt17yhNt0-OwP-10Hs-5" target="iDOt17yhNt0-OwP-10Hs-4" edge="1">
                    <mxGeometry relative="1" as="geometry"/>
                </mxCell>
                <mxCell id="iDOt17yhNt0-OwP-10Hs-5" value="R packages" style="rounded=0;whiteSpace=wrap;html=1;" parent="1" vertex="1">
                    <mxGeometry x="710" y="160" width="100" height="40" as="geometry"/>
                </mxCell>
                <mxCell id="iDOt17yhNt0-OwP-10Hs-10" style="edgeStyle=orthogonalEdgeStyle;rounded=0;orthogonalLoop=1;jettySize=auto;html=1;curved=1;" parent="1" source="iDOt17yhNt0-OwP-10Hs-6" target="iDOt17yhNt0-OwP-10Hs-2" edge="1">
                    <mxGeometry relative="1" as="geometry"/>
                </mxCell>
                <mxCell id="iDOt17yhNt0-OwP-10Hs-6" value="analyze" style="ellipse;whiteSpace=wrap;html=1;" parent="1" vertex="1">
                    <mxGeometry x="240" y="140" width="120" height="40" as="geometry"/>
                </mxCell>
                <mxCell id="iDOt17yhNt0-OwP-10Hs-11" style="edgeStyle=orthogonalEdgeStyle;rounded=0;orthogonalLoop=1;jettySize=auto;html=1;curved=1;" parent="1" source="iDOt17yhNt0-OwP-10Hs-7" target="iDOt17yhNt0-OwP-10Hs-3" edge="1">
                    <mxGeometry relative="1" as="geometry"/>
                </mxCell>
                <mxCell id="iDOt17yhNt0-OwP-10Hs-7" value="communicate" style="ellipse;whiteSpace=wrap;html=1;" parent="1" vertex="1">
                    <mxGeometry x="240" y="430" width="120" height="40" as="geometry"/>
                </mxCell>
                <mxCell id="iDOt17yhNt0-OwP-10Hs-12" value="Decision maker" style="rounded=0;whiteSpace=wrap;html=1;" parent="1" vertex="1">
                    <mxGeometry x="820" y="410" width="100" height="40" as="geometry"/>
                </mxCell>
                <mxCell id="iDOt17yhNt0-OwP-10Hs-13" value="Other systems" style="rounded=0;whiteSpace=wrap;html=1;" parent="1" vertex="1">
                    <mxGeometry x="820" y="470" width="100" height="40" as="geometry"/>
                </mxCell>
                <mxCell id="iDOt17yhNt0-OwP-10Hs-22" style="edgeStyle=orthogonalEdgeStyle;rounded=0;orthogonalLoop=1;jettySize=auto;html=1;curved=1;" parent="1" source="iDOt17yhNt0-OwP-10Hs-14" target="iDOt17yhNt0-OwP-10Hs-12" edge="1">
                    <mxGeometry relative="1" as="geometry"/>
                </mxCell>
                <mxCell id="iDOt17yhNt0-OwP-10Hs-14" value="Web apps" style="rounded=0;whiteSpace=wrap;html=1;" parent="1" vertex="1">
                    <mxGeometry x="630" y="400" width="100" height="20" as="geometry"/>
                </mxCell>
                <mxCell id="iDOt17yhNt0-OwP-10Hs-21" style="edgeStyle=orthogonalEdgeStyle;rounded=0;orthogonalLoop=1;jettySize=auto;html=1;entryX=0;entryY=0.5;entryDx=0;entryDy=0;curved=1;" parent="1" source="iDOt17yhNt0-OwP-10Hs-15" target="iDOt17yhNt0-OwP-10Hs-12" edge="1">
                    <mxGeometry relative="1" as="geometry"/>
                </mxCell>
                <mxCell id="iDOt17yhNt0-OwP-10Hs-15" value="Reports" style="rounded=0;whiteSpace=wrap;html=1;" parent="1" vertex="1">
                    <mxGeometry x="630" y="440" width="100" height="20" as="geometry"/>
                </mxCell>
                <mxCell id="iDOt17yhNt0-OwP-10Hs-20" style="edgeStyle=orthogonalEdgeStyle;rounded=0;orthogonalLoop=1;jettySize=auto;html=1;curved=1;" parent="1" source="iDOt17yhNt0-OwP-10Hs-16" target="iDOt17yhNt0-OwP-10Hs-13" edge="1">
                    <mxGeometry relative="1" as="geometry"/>
                </mxCell>
                <mxCell id="iDOt17yhNt0-OwP-10Hs-16" value="REST APIs" style="rounded=0;whiteSpace=wrap;html=1;" parent="1" vertex="1">
                    <mxGeometry x="630" y="480" width="100" height="20" as="geometry"/>
                </mxCell>
                <mxCell id="iDOt17yhNt0-OwP-10Hs-29" style="edgeStyle=orthogonalEdgeStyle;curved=1;rounded=0;orthogonalLoop=1;jettySize=auto;html=1;" parent="1" source="iDOt17yhNt0-OwP-10Hs-26" target="iDOt17yhNt0-OwP-10Hs-27" edge="1">
                    <mxGeometry relative="1" as="geometry"/>
                </mxCell>
                <mxCell id="iDOt17yhNt0-OwP-10Hs-30" style="edgeStyle=orthogonalEdgeStyle;curved=1;rounded=0;orthogonalLoop=1;jettySize=auto;html=1;" parent="1" source="iDOt17yhNt0-OwP-10Hs-26" target="iDOt17yhNt0-OwP-10Hs-28" edge="1">
                    <mxGeometry relative="1" as="geometry"/>
                </mxCell>
                <mxCell id="iDOt17yhNt0-OwP-10Hs-26" value="Applications and reports" style="rounded=0;whiteSpace=wrap;html=1;" parent="1" vertex="1">
                    <mxGeometry x="420" y="250" width="100" height="40" as="geometry"/>
                </mxCell>
                <mxCell id="iDOt17yhNt0-OwP-10Hs-31" style="edgeStyle=orthogonalEdgeStyle;curved=1;rounded=0;orthogonalLoop=1;jettySize=auto;html=1;" parent="1" source="iDOt17yhNt0-OwP-10Hs-27" target="iDOt17yhNt0-OwP-10Hs-3" edge="1">
                    <mxGeometry relative="1" as="geometry"/>
                </mxCell>
                <mxCell id="iDOt17yhNt0-OwP-10Hs-27" value="R" style="rounded=0;whiteSpace=wrap;html=1;" parent="1" vertex="1">
                    <mxGeometry x="420" y="337" width="40" height="20" as="geometry"/>
                </mxCell>
                <mxCell id="iDOt17yhNt0-OwP-10Hs-32" style="edgeStyle=orthogonalEdgeStyle;curved=1;rounded=0;orthogonalLoop=1;jettySize=auto;html=1;" parent="1" source="iDOt17yhNt0-OwP-10Hs-28" target="iDOt17yhNt0-OwP-10Hs-3" edge="1">
                    <mxGeometry relative="1" as="geometry"/>
                </mxCell>
                <mxCell id="iDOt17yhNt0-OwP-10Hs-28" value="Python" style="rounded=0;whiteSpace=wrap;html=1;" parent="1" vertex="1">
                    <mxGeometry x="470" y="337" width="40" height="20" as="geometry"/>
                </mxCell>
                <mxCell id="iDOt17yhNt0-OwP-10Hs-34" value="must" style="text;html=1;strokeColor=none;fillColor=none;align=center;verticalAlign=middle;whiteSpace=wrap;rounded=0;" parent="1" vertex="1">
                    <mxGeometry x="200" y="310" width="40" height="20" as="geometry"/>
                </mxCell>
                <mxCell id="iDOt17yhNt0-OwP-10Hs-36" value="using" style="text;html=1;strokeColor=none;fillColor=none;align=center;verticalAlign=middle;whiteSpace=wrap;rounded=0;" parent="1" vertex="1">
                    <mxGeometry x="360" y="170" width="40" height="20" as="geometry"/>
                </mxCell>
                <mxCell id="iDOt17yhNt0-OwP-10Hs-38" value="using" style="text;html=1;strokeColor=none;fillColor=none;align=center;verticalAlign=middle;whiteSpace=wrap;rounded=0;" parent="1" vertex="1">
                    <mxGeometry x="360" y="460" width="40" height="20" as="geometry"/>
                </mxCell>
                <mxCell id="iDOt17yhNt0-OwP-10Hs-39" value="to build" style="text;html=1;strokeColor=none;fillColor=none;align=center;verticalAlign=middle;whiteSpace=wrap;rounded=0;" parent="1" vertex="1">
                    <mxGeometry x="420" y="210" width="40" height="20" as="geometry"/>
                </mxCell>
                <mxCell id="iDOt17yhNt0-OwP-10Hs-40" value="running" style="text;html=1;strokeColor=none;fillColor=none;align=center;verticalAlign=middle;whiteSpace=wrap;rounded=0;" parent="1" vertex="1">
                    <mxGeometry x="380" y="310" width="40" height="20" as="geometry"/>
                </mxCell>
                <mxCell id="iDOt17yhNt0-OwP-10Hs-42" value="hosted on" style="text;html=1;strokeColor=none;fillColor=none;align=center;verticalAlign=middle;whiteSpace=wrap;rounded=0;" parent="1" vertex="1">
                    <mxGeometry x="780" y="220" width="40" height="20" as="geometry"/>
                </mxCell>
                <mxCell id="iDOt17yhNt0-OwP-10Hs-43" value="formatted as" style="text;html=1;strokeColor=none;fillColor=none;align=center;verticalAlign=middle;whiteSpace=wrap;rounded=0;" parent="1" vertex="1">
                    <mxGeometry x="550" y="390" width="40" height="20" as="geometry"/>
                </mxCell>
                <mxCell id="iDOt17yhNt0-OwP-10Hs-46" value="informs" style="text;html=1;strokeColor=none;fillColor=none;align=center;verticalAlign=middle;whiteSpace=wrap;rounded=0;" parent="1" vertex="1">
                    <mxGeometry x="760" y="390" width="40" height="20" as="geometry"/>
                </mxCell>
                <mxCell id="iDOt17yhNt0-OwP-10Hs-47" value="published to" style="text;html=1;strokeColor=none;fillColor=none;align=center;verticalAlign=middle;whiteSpace=wrap;rounded=0;" parent="1" vertex="1">
                    <mxGeometry x="390" y="390" width="40" height="20" as="geometry"/>
                </mxCell>
            </root>
        </mxGraphModel>
    </diagram>
</mxfile>